<?xml version="1.0" encoding="iso-8859-1"?>
<!-- Generator: Adobe Illustrator 19.0.0, SVG Export Plug-In . SVG Version: 6.00 Build 0)  -->
<svg version="1.1" id="Capa_1" xmlns="http://www.w3.org/2000/svg" xmlns:xlink="http://www.w3.org/1999/xlink" x="0px" y="0px"
	 viewBox="0 0 508 508" style="enable-background:new 0 0 508 508;" xml:space="preserve">
<g>
	<g>
		<rect x="49.2" y="213" width="278.6" height="16.4"/>
	</g>
</g>
<g>
	<g>
		<rect x="49.2" y="286.8" width="262.2" height="16.4"/>
	</g>
</g>
<g>
	<g>
		<rect x="49.2" y="360.5" width="204.8" height="16.4"/>
	</g>
</g>
<g>
	<g>
		<rect x="114.7" y="434.3" width="16.4" height="16.4"/>
	</g>
</g>
<g>
	<g>
		<rect x="81.9" y="434.3" width="16.4" height="16.4"/>
	</g>
</g>
<g>
	<g>
		<rect x="49.2" y="434.3" width="16.4" height="16.4"/>
	</g>
</g>
<g>
	<g>
		<path d="M49.2,41v131.1h114.7V41H49.2z M147.5,155.7H65.6V57.4h81.9V155.7z"/>
	</g>
</g>
<g>
	<g>
		<path d="M500.8,227l-23.2-23.2c-9.6-9.6-25.2-9.6-34.8,0l-66,66V119.5L257.4,0H0v508h376.9V385.7l123.9-123.9
			C510.4,252.2,510.4,236.6,500.8,227z M262.2,28l86.7,86.7h-86.7V28z M360.5,491.6H16.4V16.4h229.4v114.7h114.7v155.1L244.1,402.6
			L229.6,475l72.4-14.5l58.5-58.5V491.6z M256.7,423.2l24.7,24.7l-30.9,6.2L256.7,423.2z M298,441.4l-34.8-34.8L413.9,256l34.8,34.8
			L298,441.4z M460.3,279.2l-34.8-34.8l11.6-11.6l34.8,34.8L460.3,279.2z M489.2,250.2l-5.8,5.8l-34.8-34.8l5.8-5.8
			c3.2-3.2,8.4-3.2,11.6,0l23.2,23.2C492.4,241.8,492.4,247,489.2,250.2z"/>
	</g>
</g>
<g>
	<g>
		
			<rect x="274.007" y="340.504" transform="matrix(0.7071 -0.7071 0.7071 0.7071 -142.3134 353.832)" width="163.898" height="16.4"/>
	</g>
</g>
<g>
</g>
<g>
</g>
<g>
</g>
<g>
</g>
<g>
</g>
<g>
</g>
<g>
</g>
<g>
</g>
<g>
</g>
<g>
</g>
<g>
</g>
<g>
</g>
<g>
</g>
<g>
</g>
<g>
</g>
</svg>
